# xmcd
#
# Track frame offsets:
#	150
#	21588
#	42218
#	56918
#	82173
#	107407
#	127507
#	143508
#	162617
#	180150
#	200116
#	215875
#
# Disc length: 3139 seconds
#
# Revision: 0
# Processed by: cddbd v1.5.2PL0 Copyright (c) Steve Scherf et al.
# Submitted via: EZCDAudioConverter 7.1.7.1
#
DISCID=ab0c410c
DTITLE=区瑞强 - 永远的粤语靓歌 Dts-Es5.1
DYEAR=2010
DGENRE=
TTITLE0=盼三年
TTITLE1=不应再犹豫
TTITLE2=不可以不想你
TTITLE3=轻抚你的脸
TTITLE4=恼春风
TTITLE5=凝望
TTITLE6=忘记他
TTITLE7=追忆
TTITLE8=骤雨中的阳光
TTITLE9=今生今世
TTITLE10=流浪
TTITLE11=向日葵
EXTD=
EXTT0=
EXTT1=
EXTT2=
EXTT3=
EXTT4=
EXTT5=
EXTT6=
EXTT7=
EXTT8=
EXTT9=
EXTT10=
EXTT11=
PLAYORDER=
